<svg xmlns="http://www.w3.org/2000/svg" viewBox="0 0 480 200" fill="none" stroke="#FFFFFF" stroke-width="2.4" stroke-linecap="round" stroke-linejoin="round" aria-hidden="true">
  <!-- Schematic corner ticks -->
  <g opacity="0.35" stroke-width="1.6">
    <path d="M24 24 L40 24 M24 24 L24 40"/>
    <path d="M456 24 L440 24 M456 24 L456 40"/>
    <path d="M24 176 L40 176 M24 176 L24 160"/>
    <path d="M456 176 L440 176 M456 176 L456 160"/>
  </g>

  <!-- Left recliner -->
  <path d="M92 46 Q92 36 104 36 L166 36 Q178 36 178 46 L178 126 L92 126 Z" stroke-width="2.8"/>
  <rect x="74" y="94" width="22" height="44" rx="6" stroke-width="2.6"/>
  <rect x="174" y="94" width="22" height="44" rx="6" stroke-width="2.6"/>
  <rect x="82" y="126" width="106" height="24" rx="5" stroke-width="2.6"/>
  <line x1="100" y1="58" x2="170" y2="58" opacity="0.45"/>
  <line x1="100" y1="112" x2="170" y2="112" opacity="0.35"/>

  <!-- Shared side table -->
  <ellipse cx="240" cy="104" rx="28" ry="7" stroke-width="2.6"/>
  <line x1="240" y1="111" x2="240" y2="146" stroke-width="2.4"/>
  <ellipse cx="240" cy="148" rx="13" ry="3.5" stroke-width="2.4"/>

  <!-- Right recliner (mirror) -->
  <path d="M302 46 Q302 36 314 36 L376 36 Q388 36 388 46 L388 126 L302 126 Z" stroke-width="2.8"/>
  <rect x="284" y="94" width="22" height="44" rx="6" stroke-width="2.6"/>
  <rect x="384" y="94" width="22" height="44" rx="6" stroke-width="2.6"/>
  <rect x="292" y="126" width="106" height="24" rx="5" stroke-width="2.6"/>
  <line x1="310" y1="58" x2="380" y2="58" opacity="0.45"/>
  <line x1="310" y1="112" x2="380" y2="112" opacity="0.35"/>
</svg>
