<svg xmlns="http://www.w3.org/2000/svg" viewBox="0 0 480 200" fill="none" stroke="currentColor" stroke-width="2.4" stroke-linecap="round" stroke-linejoin="round" aria-hidden="true">
  <!-- Schematic corner ticks -->
  <g opacity="0.35" stroke-width="1.6">
    <path d="M24 24 L40 24 M24 24 L24 40"/>
    <path d="M456 24 L440 24 M456 24 L456 40"/>
    <path d="M24 176 L40 176 M24 176 L24 160"/>
    <path d="M456 176 L440 176 M456 176 L456 160"/>
  </g>

  <!-- Left booth: tall padded back + cushioned seat -->
  <path d="M104 60 Q104 50 116 50 L150 50 Q162 50 162 60 L162 118" stroke-width="2.8"/>
  <path d="M162 118 L184 118 Q190 118 190 124 L190 150 L98 150 L98 124 Q98 118 104 118 L162 118 Z" stroke-width="2.8"/>
  <line x1="108" y1="134" x2="182" y2="134" opacity="0.5"/>

  <!-- Right booth (mirror) -->
  <path d="M376 60 Q376 50 364 50 L330 50 Q318 50 318 60 L318 118" stroke-width="2.8"/>
  <path d="M318 118 L296 118 Q290 118 290 124 L290 150 L382 150 L382 124 Q382 118 376 118 L318 118 Z" stroke-width="2.8"/>
  <line x1="298" y1="134" x2="372" y2="134" opacity="0.5"/>

  <!-- Pedestal table centred between the booths -->
  <ellipse cx="240" cy="108" rx="44" ry="8" stroke-width="2.8"/>
  <line x1="240" y1="116" x2="240" y2="152" stroke-width="2.8"/>
  <ellipse cx="240" cy="154" rx="20" ry="4" stroke-width="2.6"/>
</svg>
