<svg xmlns="http://www.w3.org/2000/svg" viewBox="0 0 480 200" fill="none" stroke="#FFFFFF" stroke-width="1.6" stroke-linecap="round" stroke-linejoin="round" aria-hidden="true">
  <!-- Ground line -->
  <line x1="20" y1="178" x2="460" y2="178" stroke-dasharray="2 6" opacity="0.35" />

  <!-- Body (rectangular profile with stone-guard nose) -->
  <path d="M70 148 L70 70 L380 62 L410 62 L410 148 Z" />

  <!-- Stone-guard nose overlay -->
  <path d="M70 148 L70 110 L45 132 L45 148 Z" />

  <!-- Roof line accent -->
  <line x1="70" y1="70" x2="410" y2="70" />

  <!-- Windows -->
  <rect x="110" y="82" width="80" height="32" rx="3" />
  <rect x="210" y="82" width="80" height="32" rx="3" />
  <rect x="310" y="82" width="60" height="32" rx="3" />

  <!-- Door right of centre -->
  <rect x="300" y="108" width="30" height="40" rx="2" />
  <circle cx="323" cy="128" r="1.4" fill="#FFFFFF" stroke="none" />

  <!-- Checker-plate strip -->
  <line x1="70" y1="128" x2="410" y2="128" opacity="0.45" />

  <!-- Tandem wheels -->
  <circle cx="170" cy="158" r="18" />
  <circle cx="170" cy="158" r="7" />
  <circle cx="220" cy="158" r="18" />
  <circle cx="220" cy="158" r="7" />

  <!-- Hitch / drawbar -->
  <path d="M45 148 L25 160 L15 160" />
  <circle cx="14" cy="160" r="3" />

  <!-- Badge -->
  <text x="240" y="175" font-family="Inter, system-ui, sans-serif" font-size="10" font-weight="600" letter-spacing="0.15em" fill="#FFFFFF" stroke="none" text-anchor="middle">X-MASTER 196 · STANDARD</text>
</svg>
