<svg xmlns="http://www.w3.org/2000/svg" viewBox="0 0 1920 1080" preserveAspectRatio="xMidYMid slice">
  <defs>
    <linearGradient id="sky" x1="0" y1="0" x2="0" y2="1">
      <stop offset="0%" stop-color="#08080A"/>
      <stop offset="30%" stop-color="#0E0E0F"/>
      <stop offset="60%" stop-color="#131316"/>
      <stop offset="85%" stop-color="#1C1C1F"/>
      <stop offset="100%" stop-color="#26262B"/>
    </linearGradient>
    <linearGradient id="dune1" x1="0" y1="0" x2="0" y2="1">
      <stop offset="0%" stop-color="#131316"/>
      <stop offset="100%" stop-color="#08080A"/>
    </linearGradient>
    <linearGradient id="dune2" x1="0" y1="0" x2="0" y2="1">
      <stop offset="0%" stop-color="#0E0E0F"/>
      <stop offset="100%" stop-color="#050506"/>
    </linearGradient>
    <radialGradient id="sun" cx="0.76" cy="0.45" r="0.25">
      <stop offset="0%" stop-color="#EAE4D8" stop-opacity="0.32"/>
      <stop offset="40%" stop-color="#EAE4D8" stop-opacity="0.08"/>
      <stop offset="100%" stop-color="#EAE4D8" stop-opacity="0"/>
    </radialGradient>
    <filter id="grain">
      <feTurbulence baseFrequency="0.9" numOctaves="2" result="noise"/>
      <feColorMatrix in="noise" values="0 0 0 0 0.05 0 0 0 0 0.05 0 0 0 0 0.05 0 0 0 0.12 0"/>
      <feComposite in2="SourceGraphic" operator="in"/>
    </filter>
  </defs>
  <rect width="1920" height="1080" fill="url(#sky)"/>
  <rect width="1920" height="1080" fill="url(#sun)"/>
  <circle cx="1460" cy="488" r="120" fill="#EAE4D8" opacity="0.18"/>
  <path d="M0 700 Q240 640 520 700 Q800 760 1100 680 Q1420 600 1920 700 L1920 1080 L0 1080 Z" fill="url(#dune1)"/>
  <path d="M0 820 Q320 760 640 820 T1280 800 T1920 840 L1920 1080 L0 1080 Z" fill="url(#dune2)"/>
  <path d="M0 940 Q360 900 720 940 T1440 920 T1920 960 L1920 1080 L0 1080 Z" fill="#050506"/>
  <g transform="translate(980 760)" opacity="0.92">
    <rect x="0" y="0" width="280" height="140" rx="14" fill="#0E0E0F" stroke="#1C1C1F" stroke-width="2"/>
    <rect x="20" y="24" width="80" height="56" rx="4" fill="#EAE4D8" opacity="0.55"/>
    <rect x="120" y="24" width="60" height="56" rx="4" fill="#EAE4D8" opacity="0.38"/>
    <rect x="200" y="24" width="60" height="56" rx="4" fill="#EAE4D8" opacity="0.55"/>
    <rect x="-30" y="130" width="340" height="18" rx="6" fill="#08080A"/>
    <circle cx="50" cy="152" r="18" fill="#08080A" stroke="#1C1C1F" stroke-width="3"/>
    <circle cx="230" cy="152" r="18" fill="#08080A" stroke="#1C1C1F" stroke-width="3"/>
    <rect x="-80" y="60" width="80" height="20" rx="4" fill="#08080A"/>
  </g>
  <rect width="1920" height="1080" fill="#000" opacity="0.05" filter="url(#grain)"/>
</svg>
