<svg xmlns="http://www.w3.org/2000/svg" viewBox="0 0 1920 1080" preserveAspectRatio="xMidYMid slice">
  <defs>
    <linearGradient id="sky" x1="0" y1="0" x2="0" y2="1">
      <stop offset="0%" stop-color="#2A1E12"/>
      <stop offset="30%" stop-color="#4A2E1A"/>
      <stop offset="60%" stop-color="#8B5024"/>
      <stop offset="85%" stop-color="#C67B3F"/>
      <stop offset="100%" stop-color="#D99765"/>
    </linearGradient>
    <linearGradient id="dune1" x1="0" y1="0" x2="0" y2="1">
      <stop offset="0%" stop-color="#4A3420"/>
      <stop offset="100%" stop-color="#2A1E12"/>
    </linearGradient>
    <linearGradient id="dune2" x1="0" y1="0" x2="0" y2="1">
      <stop offset="0%" stop-color="#3A2A18"/>
      <stop offset="100%" stop-color="#1F1A14"/>
    </linearGradient>
    <radialGradient id="sun" cx="0.76" cy="0.45" r="0.25">
      <stop offset="0%" stop-color="#F5EDE0" stop-opacity="0.9"/>
      <stop offset="40%" stop-color="#F5EDE0" stop-opacity="0.2"/>
      <stop offset="100%" stop-color="#F5EDE0" stop-opacity="0"/>
    </radialGradient>
    <filter id="grain">
      <feTurbulence baseFrequency="0.9" numOctaves="2" result="noise"/>
      <feColorMatrix in="noise" values="0 0 0 0 0.2 0 0 0 0 0.15 0 0 0 0 0.1 0 0 0 0.12 0"/>
      <feComposite in2="SourceGraphic" operator="in"/>
    </filter>
  </defs>
  <rect width="1920" height="1080" fill="url(#sky)"/>
  <rect width="1920" height="1080" fill="url(#sun)"/>
  <circle cx="1460" cy="488" r="120" fill="#F5EDE0" opacity="0.35"/>
  <path d="M0 700 Q240 640 520 700 Q800 760 1100 680 Q1420 600 1920 700 L1920 1080 L0 1080 Z" fill="url(#dune1)"/>
  <path d="M0 820 Q320 760 640 820 T1280 800 T1920 840 L1920 1080 L0 1080 Z" fill="url(#dune2)"/>
  <path d="M0 940 Q360 900 720 940 T1440 920 T1920 960 L1920 1080 L0 1080 Z" fill="#1F1A14"/>
  <g transform="translate(980 760)" opacity="0.85">
    <rect x="0" y="0" width="280" height="140" rx="14" fill="#1F1A14" stroke="#3A2A18" stroke-width="2"/>
    <rect x="20" y="24" width="80" height="56" rx="4" fill="#D99765" opacity="0.7"/>
    <rect x="120" y="24" width="60" height="56" rx="4" fill="#D99765" opacity="0.5"/>
    <rect x="200" y="24" width="60" height="56" rx="4" fill="#D99765" opacity="0.7"/>
    <rect x="-30" y="130" width="340" height="18" rx="6" fill="#1F1A14"/>
    <circle cx="50" cy="152" r="18" fill="#1F1A14" stroke="#4A3420" stroke-width="3"/>
    <circle cx="230" cy="152" r="18" fill="#1F1A14" stroke="#4A3420" stroke-width="3"/>
    <rect x="-80" y="60" width="80" height="20" rx="4" fill="#1F1A14"/>
  </g>
  <rect width="1920" height="1080" fill="#000" opacity="0.05" filter="url(#grain)"/>
</svg>
