<svg xmlns="http://www.w3.org/2000/svg" viewBox="0 0 1600 900" preserveAspectRatio="xMidYMid slice">
  <defs><linearGradient id="xh" x1="0" y1="0" x2="0" y2="1"><stop offset="0%" stop-color="#14110D"/><stop offset="55%" stop-color="#3B2E20"/><stop offset="100%" stop-color="#9C5E2E"/></linearGradient></defs>
  <rect width="1600" height="900" fill="url(#xh)"/>
  <circle cx="1280" cy="280" r="110" fill="#D99765" opacity="0.25"/>
  <path d="M0 560 L200 500 L400 560 L600 480 L800 540 L1000 440 L1200 520 L1400 480 L1600 560 L1600 900 L0 900 Z" fill="#2A241C"/>
  <path d="M0 680 Q320 640 640 680 T1600 700 L1600 900 L0 900 Z" fill="#1F1A14"/>
  <path d="M0 820 Q400 790 800 820 T1600 820 L1600 900 L0 900 Z" fill="#14110D"/>
  <g transform="translate(700 600)">
    <rect x="0" y="0" width="360" height="200" rx="18" fill="#1F1A14" stroke="#4A3420" stroke-width="3"/>
    <rect x="28" y="32" width="96" height="76" rx="6" fill="#D99765" opacity="0.9"/>
    <rect x="138" y="32" width="78" height="76" rx="6" fill="#D99765" opacity="0.7"/>
    <rect x="230" y="32" width="104" height="76" rx="6" fill="#D99765" opacity="0.9"/>
    <rect x="28" y="128" width="306" height="26" rx="4" fill="#4A3420"/>
    <rect x="-50" y="190" width="460" height="26" rx="10" fill="#14110D"/>
    <circle cx="70" cy="220" r="30" fill="#14110D" stroke="#5A3E26" stroke-width="6"/>
    <circle cx="300" cy="220" r="30" fill="#14110D" stroke="#5A3E26" stroke-width="6"/>
  </g>
  <text x="80" y="140" font-family="Georgia, serif" font-size="18" font-weight="700" fill="#D99765" letter-spacing="0.24em">SAHARA X-MASTER</text>
  <text x="80" y="180" font-family="Georgia, serif" font-style="italic" font-size="32" font-weight="400" fill="#F5EDE0" opacity="0.85">Off-Road</text>
</svg>
