<svg xmlns="http://www.w3.org/2000/svg" viewBox="0 0 1200 1500" preserveAspectRatio="xMidYMid slice">
  <defs>
    <linearGradient id="wbg" x1="0" y1="0" x2="0" y2="1">
      <stop offset="0%" stop-color="#3B2E20"/>
      <stop offset="55%" stop-color="#5B3F26"/>
      <stop offset="100%" stop-color="#C67B3F"/>
    </linearGradient>
    <linearGradient id="roof" x1="0" y1="0" x2="0" y2="1">
      <stop offset="0%" stop-color="#1F1A14"/>
      <stop offset="100%" stop-color="#3B2E20"/>
    </linearGradient>
  </defs>
  <rect width="1200" height="1500" fill="url(#wbg)"/>
  <!-- Factory silhouette -->
  <path d="M0 900 L0 1100 L120 1100 L120 950 L200 950 L200 1100 L320 1100 L320 950 L400 950 L400 1100 L520 1100 L520 950 L600 950 L600 1100 L720 1100 L720 900 L1200 900 L1200 1500 L0 1500 Z" fill="url(#roof)" opacity="0.85"/>
  <!-- Caravan in foreground -->
  <g transform="translate(300 1080)" opacity="0.95">
    <rect x="0" y="0" width="600" height="260" rx="22" fill="#1F1A14"/>
    <rect x="40" y="44" width="140" height="110" rx="8" fill="#D99765" opacity="0.85"/>
    <rect x="210" y="44" width="110" height="110" rx="8" fill="#D99765" opacity="0.7"/>
    <rect x="350" y="44" width="110" height="110" rx="8" fill="#D99765" opacity="0.85"/>
    <rect x="490" y="44" width="80" height="110" rx="8" fill="#D99765" opacity="0.7"/>
    <rect x="-40" y="240" width="680" height="34" rx="12" fill="#1F1A14"/>
    <circle cx="100" cy="280" r="34" fill="#1F1A14" stroke="#4A3420" stroke-width="5"/>
    <circle cx="500" cy="280" r="34" fill="#1F1A14" stroke="#4A3420" stroke-width="5"/>
  </g>
  <!-- Sun rays -->
  <circle cx="900" cy="380" r="120" fill="#F5EDE0" opacity="0.25"/>
  <circle cx="900" cy="380" r="80" fill="#F5EDE0" opacity="0.4"/>
  <!-- Grain overlay -->
  <rect width="1200" height="1500" fill="#000" opacity="0.08"/>
</svg>
