<svg xmlns="http://www.w3.org/2000/svg" viewBox="0 0 1200 800" preserveAspectRatio="xMidYMid slice">
  <defs><linearGradient id="hg3" x1="0" y1="0" x2="0" y2="1"><stop offset="0%" stop-color="#3B2E20"/><stop offset="100%" stop-color="#6A4A28"/></linearGradient></defs>
  <rect width="1200" height="800" fill="url(#hg3)"/>
  <g transform="translate(180 220)">
    <!-- Bunks illustration -->
    <rect x="0" y="0" width="300" height="120" rx="10" fill="#E3A574" opacity="0.8"/>
    <rect x="0" y="140" width="300" height="120" rx="10" fill="#F5CFA6" opacity="0.75"/>
    <!-- Ladder -->
    <rect x="310" y="20" width="6" height="240" rx="2" fill="#4A3420"/>
    <rect x="280" y="60" width="40" height="6" rx="2" fill="#4A3420"/>
    <rect x="280" y="110" width="40" height="6" rx="2" fill="#4A3420"/>
    <rect x="280" y="160" width="40" height="6" rx="2" fill="#4A3420"/>
    <rect x="280" y="210" width="40" height="6" rx="2" fill="#4A3420"/>
    <!-- Master bed -->
    <rect x="380" y="40" width="440" height="220" rx="14" fill="#1F1A14"/>
    <rect x="410" y="70" width="380" height="80" rx="8" fill="#E3A574" opacity="0.8"/>
    <rect x="410" y="160" width="160" height="80" rx="8" fill="#F5CFA6" opacity="0.6"/>
    <rect x="580" y="160" width="210" height="80" rx="8" fill="#F5CFA6" opacity="0.8"/>
  </g>
  <text x="60" y="740" font-family="Helvetica, Arial" font-size="13" font-weight="600" fill="#F5EDE0" opacity="0.65" letter-spacing="0.24em">HORIZON — BUNKS &amp; MASTER</text>
</svg>
