<svg xmlns="http://www.w3.org/2000/svg" viewBox="0 0 1600 900" preserveAspectRatio="xMidYMid slice">
  <defs><linearGradient id="hh" x1="0" y1="0" x2="0" y2="1"><stop offset="0%" stop-color="#3B2E20"/><stop offset="55%" stop-color="#9C5E2E"/><stop offset="100%" stop-color="#E3A574"/></linearGradient></defs>
  <rect width="1600" height="900" fill="url(#hh)"/>
  <circle cx="1280" cy="260" r="120" fill="#F5EDE0" opacity="0.4"/>
  <path d="M0 620 Q360 560 720 620 T1440 600 T1600 640 L1600 900 L0 900 Z" fill="#4A3420"/>
  <path d="M0 780 Q400 750 800 780 T1600 800 L1600 900 L0 900 Z" fill="#2A1E12"/>
  <g transform="translate(680 640)">
    <rect x="0" y="0" width="420" height="200" rx="18" fill="#1F1A14"/>
    <rect x="28" y="30" width="100" height="76" rx="6" fill="#F5CFA6" opacity="0.9"/>
    <rect x="140" y="30" width="84" height="76" rx="6" fill="#F5CFA6" opacity="0.7"/>
    <rect x="236" y="30" width="76" height="76" rx="6" fill="#F5CFA6" opacity="0.9"/>
    <rect x="324" y="30" width="72" height="76" rx="6" fill="#F5CFA6" opacity="0.7"/>
    <rect x="-48" y="190" width="520" height="26" rx="10" fill="#1F1A14"/>
    <circle cx="76" cy="220" r="26" fill="#1F1A14" stroke="#4A3420" stroke-width="5"/>
    <circle cx="344" cy="220" r="26" fill="#1F1A14" stroke="#4A3420" stroke-width="5"/>
  </g>
  <text x="80" y="140" font-family="Georgia, serif" font-size="18" font-weight="700" fill="#F5CFA6" letter-spacing="0.24em">SAHARA HORIZON</text>
  <text x="80" y="180" font-family="Georgia, serif" font-style="italic" font-size="32" font-weight="400" fill="#F5EDE0" opacity="0.85">Family</text>
</svg>
