<svg xmlns="http://www.w3.org/2000/svg" viewBox="0 0 800 700">
  <defs>
    <linearGradient id="land" x1="0" y1="0" x2="1" y2="1">
      <stop offset="0%" stop-color="#C67B3F"/>
      <stop offset="100%" stop-color="#9C5E2E"/>
    </linearGradient>
  </defs>
  <!-- Simplified Australia silhouette -->
  <path d="M180 260 Q140 240 130 280 Q120 320 140 360 Q130 400 180 430 Q190 480 220 510 Q260 540 320 550 Q380 570 440 560 Q500 580 560 570 Q620 560 660 530 Q700 500 710 450 Q720 400 700 360 Q680 320 640 290 Q620 260 580 250 Q540 240 500 240 Q460 220 420 230 Q380 220 340 240 Q300 230 260 240 Q220 245 180 260 Z" fill="url(#land)" stroke="#1F1A14" stroke-width="2"/>
  <!-- Tasmania -->
  <ellipse cx="580" cy="600" rx="38" ry="22" fill="url(#land)" stroke="#1F1A14" stroke-width="2"/>
  <!-- Dealer dots -->
  <g fill="#1F1A14">
    <circle cx="500" cy="480" r="10"/>
    <text x="515" y="485" font-family="Helvetica, Arial" font-size="13" font-weight="700" fill="#1F1A14">VIC — HQ</text>
    <circle cx="560" cy="380" r="8"/>
    <text x="575" y="385" font-family="Helvetica, Arial" font-size="12" font-weight="600">NSW</text>
    <circle cx="580" cy="280" r="8"/>
    <text x="595" y="285" font-family="Helvetica, Arial" font-size="12" font-weight="600">QLD</text>
    <circle cx="430" cy="480" r="8"/>
    <text x="330" y="485" font-family="Helvetica, Arial" font-size="12" font-weight="600">SA</text>
    <circle cx="220" cy="400" r="8"/>
    <text x="150" y="405" font-family="Helvetica, Arial" font-size="12" font-weight="600">WA</text>
    <circle cx="420" cy="300" r="8"/>
    <text x="435" y="305" font-family="Helvetica, Arial" font-size="12" font-weight="600">NT</text>
    <circle cx="580" cy="600" r="7"/>
    <text x="595" y="605" font-family="Helvetica, Arial" font-size="12" font-weight="600">TAS</text>
    <circle cx="590" cy="470" r="6"/>
    <text x="605" y="475" font-family="Helvetica, Arial" font-size="11" font-weight="600">ACT</text>
  </g>
</svg>
